<?xml version="1.0" encoding="us-ascii" standalone="no"?><svg xmlns="http://www.w3.org/2000/svg" xmlns:xlink="http://www.w3.org/1999/xlink" contentStyleType="text/css" height="1031px" preserveAspectRatio="none" style="width:1514px;height:1031px;background:#FFFFFF;" version="1.1" viewBox="0 0 1514 1031" width="1514px" zoomAndPan="magnify"><defs/><g><ellipse cx="274" cy="16" fill="#222222" rx="10" ry="10" style="stroke:#222222;stroke-width:1.0;"/><g id="GrabLocalMedia"><rect fill="#F1F1F1" height="50" rx="12.5" ry="12.5" style="stroke:#181818;stroke-width:0.5;" width="129" x="75.5" y="87"/><line style="stroke:#181818;stroke-width:0.5;" x1="75.5" x2="204.5" y1="113.4883" y2="113.4883"/><text fill="#000000" font-family="sans-serif" font-size="14" lengthAdjust="spacing" textLength="109" x="85.5" y="105.5352">GrabLocalMedia</text></g><g id="CreateOffer"><rect fill="#F1F1F1" height="50" rx="12.5" ry="12.5" style="stroke:#181818;stroke-width:0.5;" width="100" x="90" y="198"/><line style="stroke:#181818;stroke-width:0.5;" x1="90" x2="190" y1="224.4883" y2="224.4883"/><text fill="#000000" font-family="sans-serif" font-size="14" lengthAdjust="spacing" textLength="80" x="100" y="216.5352">CreateOffer</text></g><g id="Failed"><rect fill="#F1F1F1" height="50" rx="12.5" ry="12.5" style="stroke:#181818;stroke-width:0.5;" width="61" x="440.5" y="975"/><line style="stroke:#181818;stroke-width:0.5;" x1="440.5" x2="501.5" y1="1001.4883" y2="1001.4883"/><text fill="#000000" font-family="sans-serif" font-size="14" lengthAdjust="spacing" textLength="41" x="450.5" y="993.5352">Failed</text></g><g id="SetLocalSessionDescription"><rect fill="#F1F1F1" height="50" rx="12.5" ry="12.5" style="stroke:#181818;stroke-width:0.5;" width="206" x="130" y="309"/><line style="stroke:#181818;stroke-width:0.5;" x1="130" x2="336" y1="335.4883" y2="335.4883"/><text fill="#000000" font-family="sans-serif" font-size="14" lengthAdjust="spacing" textLength="186" x="140" y="327.5352">SetLocalSessionDescription</text></g><g id="CollectSignalingAndIceCollection"><rect fill="#F1F1F1" height="50" rx="12.5" ry="12.5" style="stroke:#181818;stroke-width:0.5;" width="247" x="209.5" y="420"/><line style="stroke:#181818;stroke-width:0.5;" x1="209.5" x2="456.5" y1="446.4883" y2="446.4883"/><text fill="#000000" font-family="sans-serif" font-size="14" lengthAdjust="spacing" textLength="227" x="219.5" y="438.5352">CollectSignalingAndIceCollection</text></g><g id="InviteAnswer"><rect fill="#F1F1F1" height="50" rx="12.5" ry="12.5" style="stroke:#181818;stroke-width:0.5;" width="108" x="303" y="531"/><line style="stroke:#181818;stroke-width:0.5;" x1="303" x2="411" y1="557.4883" y2="557.4883"/><text fill="#000000" font-family="sans-serif" font-size="14" lengthAdjust="spacing" textLength="88" x="313" y="549.5352">InviteAnswer</text></g><g id="Accept"><rect fill="#F1F1F1" height="50" rx="12.5" ry="12.5" style="stroke:#181818;stroke-width:0.5;" width="66" x="391" y="642"/><line style="stroke:#181818;stroke-width:0.5;" x1="391" x2="457" y1="668.4883" y2="668.4883"/><text fill="#000000" font-family="sans-serif" font-size="14" lengthAdjust="spacing" textLength="46" x="401" y="660.5352">Accept</text></g><g id="Talking"><rect fill="#F1F1F1" height="50" rx="12.5" ry="12.5" style="stroke:#181818;stroke-width:0.5;" width="71" x="950.5" y="753"/><line style="stroke:#181818;stroke-width:0.5;" x1="950.5" x2="1021.5" y1="779.4883" y2="779.4883"/><text fill="#000000" font-family="sans-serif" font-size="14" lengthAdjust="spacing" textLength="51" x="960.5" y="771.5352">Talking</text></g><g id="Disconnected"><rect fill="#F1F1F1" height="50" rx="12.5" ry="12.5" style="stroke:#181818;stroke-width:0.5;" width="112" x="1160" y="975"/><line style="stroke:#181818;stroke-width:0.5;" x1="1160" x2="1272" y1="1001.4883" y2="1001.4883"/><text fill="#000000" font-family="sans-serif" font-size="14" lengthAdjust="spacing" textLength="92" x="1170" y="993.5352">Disconnected</text></g><g id="PendingConnection"><rect fill="#F1F1F1" height="50" rx="12.5" ry="12.5" style="stroke:#181818;stroke-width:0.5;" width="155" x="432.5" y="198"/><line style="stroke:#181818;stroke-width:0.5;" x1="432.5" x2="587.5" y1="224.4883" y2="224.4883"/><text fill="#000000" font-family="sans-serif" font-size="14" lengthAdjust="spacing" textLength="135" x="442.5" y="216.5352">PendingConnection</text></g><g id="PendingInvite"><rect fill="#F1F1F1" height="50" rx="12.5" ry="12.5" style="stroke:#181818;stroke-width:0.5;" width="113" x="562.5" y="309"/><line style="stroke:#181818;stroke-width:0.5;" x1="562.5" x2="675.5" y1="335.4883" y2="335.4883"/><text fill="#000000" font-family="sans-serif" font-size="14" lengthAdjust="spacing" textLength="93" x="572.5" y="327.5352">PendingInvite</text></g><g id="PendingAnswer"><rect fill="#F1F1F1" height="50" rx="12.5" ry="12.5" style="stroke:#181818;stroke-width:0.5;" width="127" x="651.5" y="420"/><line style="stroke:#181818;stroke-width:0.5;" x1="651.5" x2="778.5" y1="446.4883" y2="446.4883"/><text fill="#000000" font-family="sans-serif" font-size="14" lengthAdjust="spacing" textLength="107" x="661.5" y="438.5352">PendingAnswer</text></g><g id="PendingAccept"><rect fill="#F1F1F1" height="50" rx="12.5" ry="12.5" style="stroke:#181818;stroke-width:0.5;" width="122" x="722" y="531"/><line style="stroke:#181818;stroke-width:0.5;" x1="722" x2="844" y1="557.4883" y2="557.4883"/><text fill="#000000" font-family="sans-serif" font-size="14" lengthAdjust="spacing" textLength="102" x="732" y="549.5352">PendingAccept</text></g><g id="PendingAcceptAck"><rect fill="#F1F1F1" height="50" rx="12.5" ry="12.5" style="stroke:#181818;stroke-width:0.5;" width="147" x="810.5" y="642"/><line style="stroke:#181818;stroke-width:0.5;" x1="810.5" x2="957.5" y1="668.4883" y2="668.4883"/><text fill="#000000" font-family="sans-serif" font-size="14" lengthAdjust="spacing" textLength="127" x="820.5" y="660.5352">PendingAcceptAck</text></g><g id="PendingRemoteHangup"><rect fill="#F1F1F1" height="50" rx="12.5" ry="12.5" style="stroke:#181818;stroke-width:0.5;" width="182" x="1125" y="864"/><line style="stroke:#181818;stroke-width:0.5;" x1="1125" x2="1307" y1="890.4883" y2="890.4883"/><text fill="#000000" font-family="sans-serif" font-size="14" lengthAdjust="spacing" textLength="162" x="1135" y="882.5352">PendingRemoteHangup</text></g><g id="PendingLocalHangup"><rect fill="#F1F1F1" height="50" rx="12.5" ry="12.5" style="stroke:#181818;stroke-width:0.5;" width="165" x="1342.5" y="864"/><line style="stroke:#181818;stroke-width:0.5;" x1="1342.5" x2="1507.5" y1="890.4883" y2="890.4883"/><text fill="#000000" font-family="sans-serif" font-size="14" lengthAdjust="spacing" textLength="145" x="1352.5" y="882.5352">PendingLocalHangup</text></g><g id="PendingReconnect"><rect fill="#F1F1F1" height="50" rx="12.5" ry="12.5" style="stroke:#181818;stroke-width:0.5;" width="147" x="872.5" y="864"/><line style="stroke:#181818;stroke-width:0.5;" x1="872.5" x2="1019.5" y1="890.4883" y2="890.4883"/><text fill="#000000" font-family="sans-serif" font-size="14" lengthAdjust="spacing" textLength="127" x="882.5" y="882.5352">PendingReconnect</text></g><!--link *start* to GrabLocalMedia--><g id="link_*start*_GrabLocalMedia"><path d="M266.02,22.6 C248.5,34.89 210.672,61.4244 179.822,83.0644 " fill="none" id="*start*-to-GrabLocalMedia" style="stroke:#181818;stroke-width:1.0;"/><polygon fill="#181818" points="174.91,86.51,184.5751,84.6163,179.0034,83.6387,179.981,78.0669,174.91,86.51" style="stroke:#181818;stroke-width:1.0;"/></g><!--link GrabLocalMedia to CreateOffer--><g id="link_GrabLocalMedia_CreateOffer"><path d="M140,137.46 C140,155.41 140,173.69 140,191.62 " fill="none" id="GrabLocalMedia-to-CreateOffer" style="stroke:#181818;stroke-width:1.0;"/><polygon fill="#181818" points="140,197.62,144,188.62,140,192.62,136,188.62,140,197.62" style="stroke:#181818;stroke-width:1.0;"/></g><!--link GrabLocalMedia to Failed--><g id="link_GrabLocalMedia_Failed"><path d="M75.36,137.49 C41.09,155.09 6,182.72 6,222 C6,222 6,222 6,890 C6,979.45 330.2723,995.3854 434.1323,998.2354 " fill="none" id="GrabLocalMedia-to-Failed" style="stroke:#181818;stroke-width:1.0;"/><polygon fill="#181818" points="440.13,998.4,431.2431,994.1546,435.1319,998.2628,431.0237,1002.1516,440.13,998.4" style="stroke:#181818;stroke-width:1.0;"/></g><!--link CreateOffer to SetLocalSessionDescription--><g id="link_CreateOffer_SetLocalSessionDescription"><path d="M160.87,248.46 C176.19,266.41 193.0053,286.1258 208.3053,304.0558 " fill="none" id="CreateOffer-to-SetLocalSessionDescription" style="stroke:#181818;stroke-width:1.0;"/><polygon fill="#181818" points="212.2,308.62,209.4008,299.1773,208.9544,304.8165,203.3152,304.3702,212.2,308.62" style="stroke:#181818;stroke-width:1.0;"/></g><!--link CreateOffer to Failed--><g id="link_CreateOffer_Failed"><path d="M116.18,248.14 C98.34,268.85 77,300.43 77,333 C77,333 77,333 77,890 C77,965.23 341.2146,990.1911 434.0946,996.6911 " fill="none" id="CreateOffer-to-Failed" style="stroke:#181818;stroke-width:1.0;"/><polygon fill="#181818" points="440.08,997.11,431.3812,992.4915,435.0922,996.7609,430.8227,1000.4719,440.08,997.11" style="stroke:#181818;stroke-width:1.0;"/></g><!--link SetLocalSessionDescription to CollectSignalingAndIceCollection--><g id="link_SetLocalSessionDescription_CollectSignalingAndIceCollection"><path d="M255.44,359.46 C271.91,377.41 290.1238,397.2688 306.5738,415.1988 " fill="none" id="SetLocalSessionDescription-to-CollectSignalingAndIceCollection" style="stroke:#181818;stroke-width:1.0;"/><polygon fill="#181818" points="310.63,419.62,307.4931,410.2841,307.2498,415.9357,301.5982,415.6924,310.63,419.62" style="stroke:#181818;stroke-width:1.0;"/></g><!--link SetLocalSessionDescription to Failed--><g id="link_SetLocalSessionDescription_Failed"><path d="M218.33,359.36 C209.13,375.87 197.93,398.52 192,420 C156.15,549.9 165,587.24 165,722 C165,722 165,722 165,890 C165,948.02 356.7257,982.2944 434.3257,993.8744 " fill="none" id="SetLocalSessionDescription-to-Failed" style="stroke:#181818;stroke-width:1.0;"/><polygon fill="#181818" points="440.26,994.76,431.9489,989.4755,435.3148,994.022,430.7682,997.3879,440.26,994.76" style="stroke:#181818;stroke-width:1.0;"/></g><!--link CollectSignalingAndIceCollection to InviteAnswer--><g id="link_CollectSignalingAndIceCollection_InviteAnswer"><path d="M338.39,470.46 C342.34,488.41 346.3891,506.8305 350.3391,524.7605 " fill="none" id="CollectSignalingAndIceCollection-to-InviteAnswer" style="stroke:#181818;stroke-width:1.0;"/><polygon fill="#181818" points="351.63,530.62,353.6001,520.9702,350.5543,525.7371,345.7874,522.6913,351.63,530.62" style="stroke:#181818;stroke-width:1.0;"/></g><!--link CollectSignalingAndIceCollection to Failed--><g id="link_CollectSignalingAndIceCollection_Failed"><path d="M299.72,470.25 C276.63,490.12 250,520.51 250,555 C250,555 250,555 250,890 C250,973.85 373.5661,992.7605 434.2861,997.2205 " fill="none" id="CollectSignalingAndIceCollection-to-Failed" style="stroke:#181818;stroke-width:1.0;"/><polygon fill="#181818" points="440.27,997.66,431.5872,993.0115,435.2834,997.2937,431.0012,1000.99,440.27,997.66" style="stroke:#181818;stroke-width:1.0;"/></g><!--link InviteAnswer to Accept--><g id="link_InviteAnswer_Accept"><path d="M372.04,581.46 C383.07,599.41 394.8483,618.5783 405.8683,636.5083 " fill="none" id="InviteAnswer-to-Accept" style="stroke:#181818;stroke-width:1.0;"/><polygon fill="#181818" points="409.01,641.62,407.7052,631.858,406.3919,637.3602,400.8896,636.0469,409.01,641.62" style="stroke:#181818;stroke-width:1.0;"/></g><!--link InviteAnswer to Failed--><g id="link_InviteAnswer_Failed"><path d="M350.25,581.46 C344.79,603.42 338,636.61 338,666 C338,666 338,666 338,890 C338,942.54 395.2428,972.2512 434.5328,987.0012 " fill="none" id="InviteAnswer-to-Failed" style="stroke:#181818;stroke-width:1.0;"/><polygon fill="#181818" points="440.15,989.11,433.13,982.202,435.469,987.3527,430.3183,989.6916,440.15,989.11" style="stroke:#181818;stroke-width:1.0;"/></g><!--link Accept to Talking--><g id="link_Accept_Talking"><path d="M457.47,674.49 C556.6,693.72 842.2098,749.1076 944.2998,768.9076 " fill="none" id="Accept-to-Talking" style="stroke:#181818;stroke-width:1.0;"/><polygon fill="#181818" points="950.19,770.05,942.1162,764.4096,945.2815,769.098,940.593,772.2632,950.19,770.05" style="stroke:#181818;stroke-width:1.0;"/></g><!--link Accept to Failed--><g id="link_Accept_Failed"><path d="M427.46,692.34 C436.15,753.55 457.9964,907.4296 466.6964,968.6896 " fill="none" id="Accept-to-Failed" style="stroke:#181818;stroke-width:1.0;"/><polygon fill="#181818" points="467.54,974.63,470.2348,965.157,466.837,969.6797,462.3143,966.2818,467.54,974.63" style="stroke:#181818;stroke-width:1.0;"/></g><!--link Talking to Disconnected--><g id="link_Talking_Disconnected"><path d="M1005.57,803.35 C1028.56,831.33 1068.47,878.02 1107,914 C1130.68,936.11 1154.8641,954.9884 1177.0041,971.2484 " fill="none" id="Talking-to-Disconnected" style="stroke:#181818;stroke-width:1.0;"/><polygon fill="#181818" points="1181.84,974.8,1176.9538,966.2487,1177.8101,971.8403,1172.2184,972.6966,1181.84,974.8" style="stroke:#181818;stroke-width:1.0;"/></g><!--link *start* to PendingConnection--><g id="link_*start*_PendingConnection"><path d="M281.32,23.36 C311.59,49.65 423.3403,146.7254 477.4603,193.7354 " fill="none" id="*start*-to-PendingConnection" style="stroke:#181818;stroke-width:1.0;"/><polygon fill="#181818" points="481.99,197.67,477.8185,188.7482,478.2152,194.3911,472.5723,194.7879,481.99,197.67" style="stroke:#181818;stroke-width:1.0;"/></g><!--link PendingConnection to PendingInvite--><g id="link_PendingConnection_PendingInvite"><path d="M534.46,248.46 C552.41,266.41 572.4474,286.4474 590.3774,304.3774 " fill="none" id="PendingConnection-to-PendingInvite" style="stroke:#181818;stroke-width:1.0;"/><polygon fill="#181818" points="594.62,308.62,591.0845,299.4276,591.0845,305.0845,585.4276,305.0845,594.62,308.62" style="stroke:#181818;stroke-width:1.0;"/></g><!--link PendingConnection to PendingConnection--><g id="link_PendingConnection_PendingConnection"><path d="M587.82,212.72 C607.63,213.39 622.5,216.82 622.5,223 C622.5,229.18 613.6266,232.4072 593.8166,233.0772 " fill="none" id="PendingConnection-to-PendingConnection" style="stroke:#181818;stroke-width:1.0;"/><polygon fill="#181818" points="587.82,233.28,596.9501,236.9735,592.8171,233.111,596.6796,228.9781,587.82,233.28" style="stroke:#181818;stroke-width:1.0;"/><text fill="#000000" font-family="sans-serif" font-size="13" lengthAdjust="spacing" textLength="39" x="628.5" y="228.0684">RETRY</text></g><!--link PendingConnection to Failed--><g id="link_PendingConnection_Failed"><path d="M510,248.24 C510,270.33 510,303.86 510,333 C510,333 510,333 510,890 C510,920.55 499.0141,947.9246 487.8441,969.4446 " fill="none" id="PendingConnection-to-Failed" style="stroke:#181818;stroke-width:1.0;"/><polygon fill="#181818" points="485.08,974.77,492.7765,968.6247,487.3835,970.3322,485.676,964.9392,485.08,974.77" style="stroke:#181818;stroke-width:1.0;"/></g><!--link PendingInvite to PendingAnswer--><g id="link_PendingInvite_PendingAnswer"><path d="M640.54,359.46 C656.35,377.41 673.7632,397.1884 689.5632,415.1184 " fill="none" id="PendingInvite-to-PendingAnswer" style="stroke:#181818;stroke-width:1.0;"/><polygon fill="#181818" points="693.53,419.62,690.5808,410.2231,690.2243,415.8687,684.5787,415.5122,693.53,419.62" style="stroke:#181818;stroke-width:1.0;"/></g><!--link PendingInvite to Failed--><g id="link_PendingInvite_Failed"><path d="M611.54,359.42 C605.5,381.34 598,414.51 598,444 C598,444 598,444 598,890 C598,940.56 544.8801,970.4603 507.2901,985.9003 " fill="none" id="PendingInvite-to-Failed" style="stroke:#181818;stroke-width:1.0;"/><polygon fill="#181818" points="501.74,988.18,511.5849,988.4605,506.365,986.2803,508.5453,981.0605,501.74,988.18" style="stroke:#181818;stroke-width:1.0;"/></g><!--link PendingAnswer to PendingAccept--><g id="link_PendingAnswer_PendingAccept"><path d="M730.26,470.46 C741.46,488.41 753.4233,507.5999 764.6133,525.5299 " fill="none" id="PendingAnswer-to-PendingAccept" style="stroke:#181818;stroke-width:1.0;"/><polygon fill="#181818" points="767.79,530.62,766.4184,520.8671,765.1428,526.3783,759.6316,525.1027,767.79,530.62" style="stroke:#181818;stroke-width:1.0;"/></g><!--link PendingAnswer to Failed--><g id="link_PendingAnswer_Failed"><path d="M698.13,470.32 C685,491.64 669,523.99 669,555 C669,555 669,555 669,890 C669,965.34 563.5715,988.219 507.8915,995.339 " fill="none" id="PendingAnswer-to-Failed" style="stroke:#181818;stroke-width:1.0;"/><polygon fill="#181818" points="501.94,996.1,511.3747,998.9261,506.8996,995.4658,510.3599,990.9907,501.94,996.1" style="stroke:#181818;stroke-width:1.0;"/></g><!--link PendingAccept to PendingAcceptAck--><g id="link_PendingAccept_PendingAcceptAck"><path d="M805.67,581.46 C822.3,599.41 840.7112,619.2897 857.3312,637.2197 " fill="none" id="PendingAccept-to-PendingAcceptAck" style="stroke:#181818;stroke-width:1.0;"/><polygon fill="#181818" points="861.41,641.62,858.2253,632.3003,858.011,637.953,852.3582,637.7387,861.41,641.62" style="stroke:#181818;stroke-width:1.0;"/></g><!--link PendingAccept to Failed--><g id="link_PendingAccept_Failed"><path d="M785.44,581.04 C790.88,648.66 796.39,842.23 695,945 C668.17,972.2 562.6356,988.1418 507.7556,994.8518 " fill="none" id="PendingAccept-to-Failed" style="stroke:#181818;stroke-width:1.0;"/><polygon fill="#181818" points="501.8,995.58,511.2189,998.4582,506.763,994.9732,510.248,990.5173,501.8,995.58" style="stroke:#181818;stroke-width:1.0;"/></g><!--link PendingAcceptAck to Talking--><g id="link_PendingAcceptAck_Talking"><path d="M906.89,692.46 C923.69,710.41 942.2989,730.3104 959.0889,748.2404 " fill="none" id="PendingAcceptAck-to-Talking" style="stroke:#181818;stroke-width:1.0;"/><polygon fill="#181818" points="963.19,752.62,959.958,743.3165,959.7724,748.9703,954.1186,748.7847,963.19,752.62" style="stroke:#181818;stroke-width:1.0;"/></g><!--link PendingAcceptAck to Failed--><g id="link_PendingAcceptAck_Failed"><path d="M861.3,692.43 C854.02,701.24 846.45,711.59 841,722 C793.01,813.69 851.28,876.17 774,945 C734,980.63 576.7802,993.2274 507.9002,997.1674 " fill="none" id="PendingAcceptAck-to-Failed" style="stroke:#181818;stroke-width:1.0;"/><polygon fill="#181818" points="501.91,997.51,511.1237,1000.9895,506.9018,997.2245,510.6669,993.0026,501.91,997.51" style="stroke:#181818;stroke-width:1.0;"/></g><!--link Talking to PendingRemoteHangup--><g id="link_Talking_PendingRemoteHangup"><path d="M1021.77,792.64 C1048.15,802.99 1084.73,817.96 1116,833 C1135.46,842.36 1151.2496,850.7801 1168.9696,860.7401 " fill="none" id="Talking-to-PendingRemoteHangup" style="stroke:#181818;stroke-width:1.0;"/><polygon fill="#181818" points="1174.2,863.68,1168.3143,855.7832,1169.8413,861.2301,1164.3945,862.7571,1174.2,863.68" style="stroke:#181818;stroke-width:1.0;"/></g><!--link Talking to PendingLocalHangup--><g id="link_Talking_PendingLocalHangup"><path d="M1021.93,787.92 C1091.45,805.18 1240.1769,842.1039 1336.4169,866.0039 " fill="none" id="Talking-to-PendingLocalHangup" style="stroke:#181818;stroke-width:1.0;"/><polygon fill="#181818" points="1342.24,867.45,1334.4694,861.3988,1337.3874,866.2449,1332.5412,869.1629,1342.24,867.45" style="stroke:#181818;stroke-width:1.0;"/></g><!--link Talking to PendingReconnect--><g id="link_Talking_PendingReconnect"><path d="M970.18,803.47 C964.98,812.45 959.61,822.9 956,833 C952.5,842.78 951.0992,848.0608 949.5892,857.8008 " fill="none" id="Talking-to-PendingReconnect" style="stroke:#181818;stroke-width:1.0;"/><polygon fill="#181818" points="948.67,863.73,954.0016,855.449,949.436,858.789,946.096,854.2234,948.67,863.73" style="stroke:#181818;stroke-width:1.0;"/></g><!--link PendingReconnect to Talking--><g id="link_PendingReconnect_Talking"><path d="M954.95,863.62 C961.53,845.69 968.3749,827.0434 974.9549,809.0934 " fill="none" id="PendingReconnect-to-Talking" style="stroke:#181818;stroke-width:1.0;"/><polygon fill="#181818" points="977.02,803.46,970.1668,810.5334,975.2991,808.1545,977.678,813.2869,977.02,803.46" style="stroke:#181818;stroke-width:1.0;"/></g><!--link PendingReconnect to Failed--><g id="link_PendingReconnect_Failed"><path d="M909.08,914.24 C890.56,925.3 867.36,937.57 845,945 C722.36,985.78 572.9958,995.5444 507.8958,997.9944 " fill="none" id="PendingReconnect-to-Failed" style="stroke:#181818;stroke-width:1.0;"/><polygon fill="#181818" points="501.9,998.22,511.0441,1001.8787,506.8965,998.032,510.7432,993.8844,501.9,998.22" style="stroke:#181818;stroke-width:1.0;"/></g><!--link PendingRemoteHangup to Disconnected--><g id="link_PendingRemoteHangup_Disconnected"><path d="M1216,914.46 C1216,932.41 1216,950.69 1216,968.62 " fill="none" id="PendingRemoteHangup-to-Disconnected" style="stroke:#181818;stroke-width:1.0;"/><polygon fill="#181818" points="1216,974.62,1220,965.62,1216,969.62,1212,965.62,1216,974.62" style="stroke:#181818;stroke-width:1.0;"/></g><!--link PendingLocalHangup to Disconnected--><g id="link_PendingLocalHangup_Disconnected"><path d="M1378.1,914.46 C1343.68,932.41 1302.45,953.9155 1268.07,971.8455 " fill="none" id="PendingLocalHangup-to-Disconnected" style="stroke:#181818;stroke-width:1.0;"/><polygon fill="#181818" points="1262.75,974.62,1272.5796,974.0049,1267.1833,972.3079,1268.8803,966.9116,1262.75,974.62" style="stroke:#181818;stroke-width:1.0;"/></g><!--SRC=[ZLBDRW8X4Bxp57jkuWjuQBBHQatQjDdrqXWFb1qtH3fi5hIlNuGn1M5hRxlV7nypx1xsrMpsMAr7_lcY1LUlq4dEqb-lM8p0BRmT3Z2Mw1MN2ZeMgJpSWlN25eoH6fTWn2W7wpupAILCEq8DhHG8syeUkPBOrzXj111wYRtZl_Qy4-Er6pnB2pMQRtVdVpaeFJPwl1O21flZf0-qHxPS7Lrw396860yjfH4QqPti2CPsjCLtmCv95e6wJ2D3ObseyxScGkTLyxHjFYRqr3A9ZeDeZ3cV6gFXN94mkvo_CVuEB45gSIn8IbwdJ5PG90lB85q3Nzh2CyV-D9Hu_ogdwGPee-mMA9LAoVGsSP7yjUHj2Y_g1m00]--></g></svg>