<?xml version="1.0" encoding="us-ascii" standalone="no"?><svg xmlns="http://www.w3.org/2000/svg" xmlns:xlink="http://www.w3.org/1999/xlink" contentStyleType="text/css" height="912px" preserveAspectRatio="none" style="width:469px;height:912px;background:#FFFFFF;" version="1.1" viewBox="0 0 469 912" width="469px" zoomAndPan="magnify"><defs/><g><ellipse cx="397.5" cy="16" fill="#222222" rx="10" ry="10" style="stroke:#222222;stroke-width:1.0;"/><g id="GrabLocalMedia"><rect fill="#F1F1F1" height="50" rx="12.5" ry="12.5" style="stroke:#181818;stroke-width:0.5;" width="129" x="333" y="86"/><line style="stroke:#181818;stroke-width:0.5;" x1="333" x2="462" y1="112.4883" y2="112.4883"/><text fill="#000000" font-family="sans-serif" font-size="14" lengthAdjust="spacing" textLength="109" x="343" y="104.5352">GrabLocalMedia</text></g><g id="CreateOffer"><rect fill="#F1F1F1" height="50" rx="12.5" ry="12.5" style="stroke:#181818;stroke-width:0.5;" width="100" x="296.5" y="196"/><line style="stroke:#181818;stroke-width:0.5;" x1="296.5" x2="396.5" y1="222.4883" y2="222.4883"/><text fill="#000000" font-family="sans-serif" font-size="14" lengthAdjust="spacing" textLength="80" x="306.5" y="214.5352">CreateOffer</text></g><g id="Failed"><rect fill="#F1F1F1" height="50" rx="12.5" ry="12.5" style="stroke:#181818;stroke-width:0.5;" width="61" x="241" y="746"/><line style="stroke:#181818;stroke-width:0.5;" x1="241" x2="302" y1="772.4883" y2="772.4883"/><text fill="#000000" font-family="sans-serif" font-size="14" lengthAdjust="spacing" textLength="41" x="251" y="764.5352">Failed</text></g><g id="SetLocalSessionDescription"><rect fill="#F1F1F1" height="50" rx="12.5" ry="12.5" style="stroke:#181818;stroke-width:0.5;" width="206" x="119.5" y="306"/><line style="stroke:#181818;stroke-width:0.5;" x1="119.5" x2="325.5" y1="332.4883" y2="332.4883"/><text fill="#000000" font-family="sans-serif" font-size="14" lengthAdjust="spacing" textLength="186" x="129.5" y="324.5352">SetLocalSessionDescription</text></g><g id="CollectSignalingAndIceCollection"><rect fill="#F1F1F1" height="50" rx="12.5" ry="12.5" style="stroke:#181818;stroke-width:0.5;" width="247" x="7" y="416"/><line style="stroke:#181818;stroke-width:0.5;" x1="7" x2="254" y1="442.4883" y2="442.4883"/><text fill="#000000" font-family="sans-serif" font-size="14" lengthAdjust="spacing" textLength="227" x="17" y="434.5352">CollectSignalingAndIceCollection</text></g><g id="InviteAnswer"><rect fill="#F1F1F1" height="50" rx="12.5" ry="12.5" style="stroke:#181818;stroke-width:0.5;" width="108" x="75.5" y="526"/><line style="stroke:#181818;stroke-width:0.5;" x1="75.5" x2="183.5" y1="552.4883" y2="552.4883"/><text fill="#000000" font-family="sans-serif" font-size="14" lengthAdjust="spacing" textLength="88" x="85.5" y="544.5352">InviteAnswer</text></g><g id="Accept"><rect fill="#F1F1F1" height="50" rx="12.5" ry="12.5" style="stroke:#181818;stroke-width:0.5;" width="66" x="46.5" y="636"/><line style="stroke:#181818;stroke-width:0.5;" x1="46.5" x2="112.5" y1="662.4883" y2="662.4883"/><text fill="#000000" font-family="sans-serif" font-size="14" lengthAdjust="spacing" textLength="46" x="56.5" y="654.5352">Accept</text></g><g id="Talking"><rect fill="#F1F1F1" height="50" rx="12.5" ry="12.5" style="stroke:#181818;stroke-width:0.5;" width="71" x="44" y="746"/><line style="stroke:#181818;stroke-width:0.5;" x1="44" x2="115" y1="772.4883" y2="772.4883"/><text fill="#000000" font-family="sans-serif" font-size="14" lengthAdjust="spacing" textLength="51" x="54" y="764.5352">Talking</text></g><g id="Disconnected"><rect fill="#F1F1F1" height="50" rx="12.5" ry="12.5" style="stroke:#181818;stroke-width:0.5;" width="112" x="23.5" y="856"/><line style="stroke:#181818;stroke-width:0.5;" x1="23.5" x2="135.5" y1="882.4883" y2="882.4883"/><text fill="#000000" font-family="sans-serif" font-size="14" lengthAdjust="spacing" textLength="92" x="33.5" y="874.5352">Disconnected</text></g><!--link *start* to GrabLocalMedia--><g id="link_*start*_GrabLocalMedia"><path d="M397.5,26.26 C397.5,39.95 397.5,60.07 397.5,79.52 " fill="none" id="*start*-to-GrabLocalMedia" style="stroke:#181818;stroke-width:1.0;"/><polygon fill="#181818" points="397.5,85.52,401.5,76.52,397.5,80.52,393.5,76.52,397.5,85.52" style="stroke:#181818;stroke-width:1.0;"/></g><!--link GrabLocalMedia to CreateOffer--><g id="link_GrabLocalMedia_CreateOffer"><path d="M386.05,136.24 C377.66,154.02 368.8629,172.6549 360.4729,190.4149 " fill="none" id="GrabLocalMedia-to-CreateOffer" style="stroke:#181818;stroke-width:1.0;"/><polygon fill="#181818" points="357.91,195.84,365.371,189.4109,360.0457,191.3191,358.1376,185.9938,357.91,195.84" style="stroke:#181818;stroke-width:1.0;"/></g><!--link GrabLocalMedia to Failed--><g id="link_GrabLocalMedia_Failed"><path d="M407.28,136.39 C422.34,176.23 449.5,258.02 449.5,330 C449.5,330 449.5,330 449.5,552 C449.5,644.1 358.026,715.5083 307.136,748.4683 " fill="none" id="GrabLocalMedia-to-Failed" style="stroke:#181818;stroke-width:1.0;"/><polygon fill="#181818" points="302.1,751.73,311.8285,750.1948,306.2967,749.0119,307.4796,743.4801,302.1,751.73" style="stroke:#181818;stroke-width:1.0;"/></g><!--link CreateOffer to SetLocalSessionDescription--><g id="link_CreateOffer_SetLocalSessionDescription"><path d="M318.67,246.24 C298.25,264.02 275.1653,284.1403 254.7653,301.9003 " fill="none" id="CreateOffer-to-SetLocalSessionDescription" style="stroke:#181818;stroke-width:1.0;"/><polygon fill="#181818" points="250.24,305.84,259.6545,302.9473,254.0111,302.5569,254.4015,296.9135,250.24,305.84" style="stroke:#181818;stroke-width:1.0;"/></g><!--link CreateOffer to Failed--><g id="link_CreateOffer_Failed"><path d="M352.44,246.35 C361.7,286.45 378.5,369.04 378.5,440 C378.5,440 378.5,440 378.5,552 C378.5,629.15 327.6051,702.7445 296.4251,741.0945 " fill="none" id="CreateOffer-to-Failed" style="stroke:#181818;stroke-width:1.0;"/><polygon fill="#181818" points="292.64,745.75,301.4212,741.2902,295.7942,741.8705,295.214,736.2434,292.64,745.75" style="stroke:#181818;stroke-width:1.0;"/></g><!--link SetLocalSessionDescription to CollectSignalingAndIceCollection--><g id="link_SetLocalSessionDescription_CollectSignalingAndIceCollection"><path d="M201.85,356.24 C186.7,374.02 170.101,393.5127 154.971,411.2727 " fill="none" id="SetLocalSessionDescription-to-CollectSignalingAndIceCollection" style="stroke:#181818;stroke-width:1.0;"/><polygon fill="#181818" points="151.08,415.84,159.9613,411.583,154.3225,412.0339,153.8716,406.395,151.08,415.84" style="stroke:#181818;stroke-width:1.0;"/></g><!--link SetLocalSessionDescription to Failed--><g id="link_SetLocalSessionDescription_Failed"><path d="M241.12,356.21 C252.26,372.22 265.4,394.22 271.5,416 C305.07,535.84 286.5096,681.6705 276.8796,739.8605 " fill="none" id="SetLocalSessionDescription-to-Failed" style="stroke:#181818;stroke-width:1.0;"/><polygon fill="#181818" points="275.9,745.78,281.3158,737.5539,276.7164,740.8471,273.4231,736.2477,275.9,745.78" style="stroke:#181818;stroke-width:1.0;"/></g><!--link CollectSignalingAndIceCollection to InviteAnswer--><g id="link_CollectSignalingAndIceCollection_InviteAnswer"><path d="M130.28,466.24 C130.11,484.02 129.9474,502.0803 129.7774,519.8403 " fill="none" id="CollectSignalingAndIceCollection-to-InviteAnswer" style="stroke:#181818;stroke-width:1.0;"/><polygon fill="#181818" points="129.72,525.84,133.806,516.8787,129.7679,520.8402,125.8063,516.8021,129.72,525.84" style="stroke:#181818;stroke-width:1.0;"/></g><!--link CollectSignalingAndIceCollection to Failed--><g id="link_CollectSignalingAndIceCollection_Failed"><path d="M155.98,466.38 C171.12,482.13 189.63,503.77 201.5,526 C241.26,600.44 259.7625,694.1253 267.0325,739.5853 " fill="none" id="CollectSignalingAndIceCollection-to-Failed" style="stroke:#181818;stroke-width:1.0;"/><polygon fill="#181818" points="267.98,745.51,270.5086,735.9913,267.1904,740.5727,262.609,737.2546,267.98,745.51" style="stroke:#181818;stroke-width:1.0;"/></g><!--link InviteAnswer to Accept--><g id="link_InviteAnswer_Accept"><path d="M118.28,576.24 C110.04,594.02 101.4327,612.6361 93.2027,630.3961 " fill="none" id="InviteAnswer-to-Accept" style="stroke:#181818;stroke-width:1.0;"/><polygon fill="#181818" points="90.68,635.84,98.0933,629.356,92.7823,631.3034,90.8348,625.9924,90.68,635.84" style="stroke:#181818;stroke-width:1.0;"/></g><!--link InviteAnswer to Failed--><g id="link_InviteAnswer_Failed"><path d="M143.24,576.1 C158.9,603.22 185.55,648.4 210.5,686 C224.15,706.57 237.0665,724.3751 249.4665,740.9551 " fill="none" id="InviteAnswer-to-Failed" style="stroke:#181818;stroke-width:1.0;"/><polygon fill="#181818" points="253.06,745.76,250.873,736.157,250.0654,741.7559,244.4665,740.9484,253.06,745.76" style="stroke:#181818;stroke-width:1.0;"/></g><!--link Accept to Talking--><g id="link_Accept_Talking"><path d="M79.5,686.24 C79.5,704.02 79.5,722.08 79.5,739.84 " fill="none" id="Accept-to-Talking" style="stroke:#181818;stroke-width:1.0;"/><polygon fill="#181818" points="79.5,745.84,83.5,736.84,79.5,740.84,75.5,736.84,79.5,745.84" style="stroke:#181818;stroke-width:1.0;"/></g><!--link Accept to Failed--><g id="link_Accept_Failed"><path d="M112.94,680.81 C148.94,701.06 200.4806,730.0484 235.4306,749.7084 " fill="none" id="Accept-to-Failed" style="stroke:#181818;stroke-width:1.0;"/><polygon fill="#181818" points="240.66,752.65,234.777,744.7513,236.3022,750.1986,230.8548,751.7238,240.66,752.65" style="stroke:#181818;stroke-width:1.0;"/></g><!--link Talking to Disconnected--><g id="link_Talking_Disconnected"><path d="M79.5,796.24 C79.5,814.02 79.5,832.08 79.5,849.84 " fill="none" id="Talking-to-Disconnected" style="stroke:#181818;stroke-width:1.0;"/><polygon fill="#181818" points="79.5,855.84,83.5,846.84,79.5,850.84,75.5,846.84,79.5,855.84" style="stroke:#181818;stroke-width:1.0;"/></g><!--SRC=[ZO_12i8m38RlUugTXRs2C1pAGF4mR-8XPja8bdIqHL_VcbMOJ9ctzlk__4tFgqjU5Ejyv-2wjmZcG2r3zdbLO-C80XsxZjotU0jigCqcbkA6WeeDUSzMAlBeU0ZnE5DJm- -9SGrh365ek1SmB7qfROsKwAjsOVwzvqADkhNSEL0f_X7__DT4QfyEAYyHQGXpdlmnLd82SuljKvIab2YgsACLYI_7u0a0]--></g></svg>