<?xml version="1.0" encoding="us-ascii" standalone="no"?><svg xmlns="http://www.w3.org/2000/svg" xmlns:xlink="http://www.w3.org/1999/xlink" contentStyleType="text/css" height="919px" preserveAspectRatio="none" style="width:999px;height:919px;background:#FFFFFF;" version="1.1" viewBox="0 0 999 919" width="999px" zoomAndPan="magnify"><defs/><g><ellipse cx="84.5" cy="16" fill="#222222" rx="10" ry="10" style="stroke:#222222;stroke-width:1.0;"/><g id="PendingConnection"><rect fill="#F1F1F1" height="50" rx="12.5" ry="12.5" style="stroke:#181818;stroke-width:0.5;" width="155" x="7" y="86"/><line style="stroke:#181818;stroke-width:0.5;" x1="7" x2="162" y1="112.4883" y2="112.4883"/><text fill="#000000" font-family="sans-serif" font-size="14" lengthAdjust="spacing" textLength="135" x="17" y="104.5352">PendingConnection</text></g><g id="PendingInvite"><rect fill="#F1F1F1" height="50" rx="12.5" ry="12.5" style="stroke:#181818;stroke-width:0.5;" width="113" x="108" y="197"/><line style="stroke:#181818;stroke-width:0.5;" x1="108" x2="221" y1="223.4883" y2="223.4883"/><text fill="#000000" font-family="sans-serif" font-size="14" lengthAdjust="spacing" textLength="93" x="118" y="215.5352">PendingInvite</text></g><g id="Failed"><rect fill="#F1F1F1" height="50" rx="12.5" ry="12.5" style="stroke:#181818;stroke-width:0.5;" width="61" x="228" y="863"/><line style="stroke:#181818;stroke-width:0.5;" x1="228" x2="289" y1="889.4883" y2="889.4883"/><text fill="#000000" font-family="sans-serif" font-size="14" lengthAdjust="spacing" textLength="41" x="238" y="881.5352">Failed</text></g><g id="PendingAnswer"><rect fill="#F1F1F1" height="50" rx="12.5" ry="12.5" style="stroke:#181818;stroke-width:0.5;" width="127" x="197" y="308"/><line style="stroke:#181818;stroke-width:0.5;" x1="197" x2="324" y1="334.4883" y2="334.4883"/><text fill="#000000" font-family="sans-serif" font-size="14" lengthAdjust="spacing" textLength="107" x="207" y="326.5352">PendingAnswer</text></g><g id="PendingAccept"><rect fill="#F1F1F1" height="50" rx="12.5" ry="12.5" style="stroke:#181818;stroke-width:0.5;" width="122" x="267.5" y="419"/><line style="stroke:#181818;stroke-width:0.5;" x1="267.5" x2="389.5" y1="445.4883" y2="445.4883"/><text fill="#000000" font-family="sans-serif" font-size="14" lengthAdjust="spacing" textLength="102" x="277.5" y="437.5352">PendingAccept</text></g><g id="PendingAcceptAck"><rect fill="#F1F1F1" height="50" rx="12.5" ry="12.5" style="stroke:#181818;stroke-width:0.5;" width="147" x="356" y="530"/><line style="stroke:#181818;stroke-width:0.5;" x1="356" x2="503" y1="556.4883" y2="556.4883"/><text fill="#000000" font-family="sans-serif" font-size="14" lengthAdjust="spacing" textLength="127" x="366" y="548.5352">PendingAcceptAck</text></g><g id="Talking"><rect fill="#F1F1F1" height="50" rx="12.5" ry="12.5" style="stroke:#181818;stroke-width:0.5;" width="71" x="505" y="641"/><line style="stroke:#181818;stroke-width:0.5;" x1="505" x2="576" y1="667.4883" y2="667.4883"/><text fill="#000000" font-family="sans-serif" font-size="14" lengthAdjust="spacing" textLength="51" x="515" y="659.5352">Talking</text></g><g id="PendingRemoteHangup"><rect fill="#F1F1F1" height="50" rx="12.5" ry="12.5" style="stroke:#181818;stroke-width:0.5;" width="182" x="609.5" y="752"/><line style="stroke:#181818;stroke-width:0.5;" x1="609.5" x2="791.5" y1="778.4883" y2="778.4883"/><text fill="#000000" font-family="sans-serif" font-size="14" lengthAdjust="spacing" textLength="162" x="619.5" y="770.5352">PendingRemoteHangup</text></g><g id="PendingLocalHangup"><rect fill="#F1F1F1" height="50" rx="12.5" ry="12.5" style="stroke:#181818;stroke-width:0.5;" width="165" x="827" y="752"/><line style="stroke:#181818;stroke-width:0.5;" x1="827" x2="992" y1="778.4883" y2="778.4883"/><text fill="#000000" font-family="sans-serif" font-size="14" lengthAdjust="spacing" textLength="145" x="837" y="770.5352">PendingLocalHangup</text></g><g id="PendingReconnect"><rect fill="#F1F1F1" height="50" rx="12.5" ry="12.5" style="stroke:#181818;stroke-width:0.5;" width="147" x="427" y="752"/><line style="stroke:#181818;stroke-width:0.5;" x1="427" x2="574" y1="778.4883" y2="778.4883"/><text fill="#000000" font-family="sans-serif" font-size="14" lengthAdjust="spacing" textLength="127" x="437" y="770.5352">PendingReconnect</text></g><g id="Disconnected"><rect fill="#F1F1F1" height="50" rx="12.5" ry="12.5" style="stroke:#181818;stroke-width:0.5;" width="112" x="748.5" y="863"/><line style="stroke:#181818;stroke-width:0.5;" x1="748.5" x2="860.5" y1="889.4883" y2="889.4883"/><text fill="#000000" font-family="sans-serif" font-size="14" lengthAdjust="spacing" textLength="92" x="758.5" y="881.5352">Disconnected</text></g><!--link *start* to PendingConnection--><g id="link_*start*_PendingConnection"><path d="M84.5,26.26 C84.5,39.95 84.5,60.07 84.5,79.52 " fill="none" id="*start*-to-PendingConnection" style="stroke:#181818;stroke-width:1.0;"/><polygon fill="#181818" points="84.5,85.52,88.5,76.52,84.5,80.52,80.5,76.52,84.5,85.52" style="stroke:#181818;stroke-width:1.0;"/></g><!--link PendingConnection to PendingInvite--><g id="link_PendingConnection_PendingInvite"><path d="M102.45,136.46 C115.63,154.41 129.8998,173.853 143.0598,191.783 " fill="none" id="PendingConnection-to-PendingInvite" style="stroke:#181818;stroke-width:1.0;"/><polygon fill="#181818" points="146.61,196.62,144.5094,186.9978,143.6515,192.5892,138.0601,191.7313,146.61,196.62" style="stroke:#181818;stroke-width:1.0;"/></g><!--link PendingConnection to PendingConnection--><g id="link_PendingConnection_PendingConnection"><path d="M162.32,100.81 C182.13,101.48 197,104.88 197,111 C197,117.12 188.1266,120.3172 168.3166,120.9872 " fill="none" id="PendingConnection-to-PendingConnection" style="stroke:#181818;stroke-width:1.0;"/><polygon fill="#181818" points="162.32,121.19,171.4501,124.8835,167.3171,121.021,171.1796,116.8881,162.32,121.19" style="stroke:#181818;stroke-width:1.0;"/><text fill="#000000" font-family="sans-serif" font-size="13" lengthAdjust="spacing" textLength="39" x="203" y="116.0684">RETRY</text></g><!--link PendingConnection to Failed--><g id="link_PendingConnection_Failed"><path d="M74.19,136.19 C65.86,157.96 55.5,191.04 55.5,221 C55.5,221 55.5,221 55.5,778 C55.5,855.2 164.9192,877.2656 221.7092,883.7856 " fill="none" id="PendingConnection-to-Failed" style="stroke:#181818;stroke-width:1.0;"/><polygon fill="#181818" points="227.67,884.47,219.185,879.4696,222.7026,883.8997,218.2725,887.4174,227.67,884.47" style="stroke:#181818;stroke-width:1.0;"/></g><!--link PendingInvite to PendingAnswer--><g id="link_PendingInvite_PendingAnswer"><path d="M186.04,247.46 C201.85,265.41 219.2632,285.1884 235.0632,303.1184 " fill="none" id="PendingInvite-to-PendingAnswer" style="stroke:#181818;stroke-width:1.0;"/><polygon fill="#181818" points="239.03,307.62,236.0808,298.2231,235.7243,303.8687,230.0787,303.5122,239.03,307.62" style="stroke:#181818;stroke-width:1.0;"/></g><!--link PendingInvite to Failed--><g id="link_PendingInvite_Failed"><path d="M157.04,247.42 C151,269.34 143.5,302.51 143.5,332 C143.5,332 143.5,332 143.5,778 C143.5,824.49 188.239,854.4458 222.299,871.2458 " fill="none" id="PendingInvite-to-Failed" style="stroke:#181818;stroke-width:1.0;"/><polygon fill="#181818" points="227.68,873.9,221.3779,866.3314,223.1958,871.6882,217.839,873.5061,227.68,873.9" style="stroke:#181818;stroke-width:1.0;"/></g><!--link PendingAnswer to PendingAccept--><g id="link_PendingAnswer_PendingAccept"><path d="M275.76,358.46 C286.96,376.41 298.9233,395.5999 310.1133,413.5299 " fill="none" id="PendingAnswer-to-PendingAccept" style="stroke:#181818;stroke-width:1.0;"/><polygon fill="#181818" points="313.29,418.62,311.9184,408.8671,310.6428,414.3783,305.1316,413.1027,313.29,418.62" style="stroke:#181818;stroke-width:1.0;"/></g><!--link PendingAnswer to Failed--><g id="link_PendingAnswer_Failed"><path d="M243.63,358.32 C230.5,379.64 214.5,411.99 214.5,443 C214.5,443 214.5,443 214.5,778 C214.5,808.81 226.7708,836.0267 239.3308,857.4067 " fill="none" id="PendingAnswer-to-Failed" style="stroke:#181818;stroke-width:1.0;"/><polygon fill="#181818" points="242.37,862.58,241.2602,852.7939,239.8374,858.2689,234.3624,856.8461,242.37,862.58" style="stroke:#181818;stroke-width:1.0;"/></g><!--link PendingAccept to PendingAcceptAck--><g id="link_PendingAccept_PendingAcceptAck"><path d="M351.17,469.46 C367.8,487.41 386.2112,507.2897 402.8312,525.2197 " fill="none" id="PendingAccept-to-PendingAcceptAck" style="stroke:#181818;stroke-width:1.0;"/><polygon fill="#181818" points="406.91,529.62,403.7253,520.3003,403.511,525.953,397.8582,525.7387,406.91,529.62" style="stroke:#181818;stroke-width:1.0;"/></g><!--link PendingAccept to Failed--><g id="link_PendingAccept_Failed"><path d="M319.26,469.28 C311.79,491.11 302.5,524.23 302.5,554 C302.5,554 302.5,554 302.5,778 C302.5,808.81 290.2292,836.0267 277.6692,857.4067 " fill="none" id="PendingAccept-to-Failed" style="stroke:#181818;stroke-width:1.0;"/><polygon fill="#181818" points="274.63,862.58,282.6376,856.8461,277.1626,858.2689,275.7398,852.7939,274.63,862.58" style="stroke:#181818;stroke-width:1.0;"/></g><!--link PendingAcceptAck to Talking--><g id="link_PendingAcceptAck_Talking"><path d="M454.41,580.46 C472.69,598.41 493.1289,618.4862 511.3889,636.4162 " fill="none" id="PendingAcceptAck-to-Talking" style="stroke:#181818;stroke-width:1.0;"/><polygon fill="#181818" points="515.67,640.62,512.0508,631.4602,512.1024,637.1169,506.4458,637.1684,515.67,640.62" style="stroke:#181818;stroke-width:1.0;"/></g><!--link PendingAcceptAck to Failed--><g id="link_PendingAcceptAck_Failed"><path d="M425.37,580.39 C415.76,631.46 388.05,751.62 328.5,833 C318.08,847.24 307.8432,856.2039 294.2832,865.4739 " fill="none" id="PendingAcceptAck-to-Failed" style="stroke:#181818;stroke-width:1.0;"/><polygon fill="#181818" points="289.33,868.86,299.0172,867.0829,293.4577,866.0382,294.5024,860.4787,289.33,868.86" style="stroke:#181818;stroke-width:1.0;"/></g><!--link Talking to PendingRemoteHangup--><g id="link_Talking_PendingRemoteHangup"><path d="M576.41,691.46 C602.76,709.41 633.4313,730.312 659.7513,748.242 " fill="none" id="Talking-to-PendingRemoteHangup" style="stroke:#181818;stroke-width:1.0;"/><polygon fill="#181818" points="664.71,751.62,659.5239,743.2471,660.5777,748.805,655.0199,749.8588,664.71,751.62" style="stroke:#181818;stroke-width:1.0;"/></g><!--link Talking to PendingLocalHangup--><g id="link_Talking_PendingLocalHangup"><path d="M576.22,677.55 C633.64,694.51 742.2558,726.6001 820.8558,749.8201 " fill="none" id="Talking-to-PendingLocalHangup" style="stroke:#181818;stroke-width:1.0;"/><polygon fill="#181818" points="826.61,751.52,819.112,745.1341,821.8149,750.1034,816.8455,752.8063,826.61,751.52" style="stroke:#181818;stroke-width:1.0;"/></g><!--link Talking to PendingReconnect--><g id="link_Talking_PendingReconnect"><path d="M524.68,691.47 C519.48,700.45 514.11,710.9 510.5,721 C507,730.78 505.5992,736.0608 504.0892,745.8008 " fill="none" id="Talking-to-PendingReconnect" style="stroke:#181818;stroke-width:1.0;"/><polygon fill="#181818" points="503.17,751.73,508.5016,743.449,503.936,746.789,500.596,742.2234,503.17,751.73" style="stroke:#181818;stroke-width:1.0;"/></g><!--link PendingReconnect to Talking--><g id="link_PendingReconnect_Talking"><path d="M509.45,751.62 C516.03,733.69 522.8749,715.0434 529.4549,697.0934 " fill="none" id="PendingReconnect-to-Talking" style="stroke:#181818;stroke-width:1.0;"/><polygon fill="#181818" points="531.52,691.46,524.6668,698.5334,529.7991,696.1545,532.178,701.2869,531.52,691.46" style="stroke:#181818;stroke-width:1.0;"/></g><!--link PendingReconnect to Failed--><g id="link_PendingReconnect_Failed"><path d="M458.88,802.29 C440.9,812.35 419.44,823.8 399.5,833 C362.37,850.13 323.792,864.4447 294.902,874.5747 " fill="none" id="PendingReconnect-to-Failed" style="stroke:#181818;stroke-width:1.0;"/><polygon fill="#181818" points="289.24,876.56,299.0566,877.3567,293.9583,874.9056,296.4095,869.8073,289.24,876.56" style="stroke:#181818;stroke-width:1.0;"/></g><!--link PendingRemoteHangup to Disconnected--><g id="link_PendingRemoteHangup_Disconnected"><path d="M723.84,802.46 C740.97,820.41 759.9878,840.3493 777.0978,858.2793 " fill="none" id="PendingRemoteHangup-to-Disconnected" style="stroke:#181818;stroke-width:1.0;"/><polygon fill="#181818" points="781.24,862.62,777.9205,853.3474,777.7881,859.0027,772.1328,858.8704,781.24,862.62" style="stroke:#181818;stroke-width:1.0;"/></g><!--link PendingLocalHangup to Disconnected--><g id="link_PendingLocalHangup_Disconnected"><path d="M885.94,802.46 C868.64,820.41 849.4224,840.3686 832.1524,858.2986 " fill="none" id="PendingLocalHangup-to-Disconnected" style="stroke:#181818;stroke-width:1.0;"/><polygon fill="#181818" points="827.99,862.62,837.1145,858.9128,831.4586,859.0188,831.3526,853.3629,827.99,862.62" style="stroke:#181818;stroke-width:1.0;"/></g><!--SRC=[VP3B2i8m44Nt_OgiXVw02w7uGC65X6v4N8HqAA5nKcpKtxUa0IVDrEqzvqvcSblTHLbkn0MmCTXk7I9eRnmMMKAz4xwDX_yEITT2xcjvNV0FobXeYcGq7LJXy84dmzFYf2L5hQ7t39yLWvONAzqn2jSTpS1gPRinv64iHeS-9-7XF1mLjg-UusUdbLt64lJqeSKyu9PAONeDNIJWdHcY_PF8Dhdp1G00]--></g></svg>